<svg width="46" height="46" viewBox="0 0 46 46" fill="none" xmlns="http://www.w3.org/2000/svg">
<circle cx="23" cy="23" r="23" fill="#DDDDDD"/>
<path d="M23.7725 14.3C25.0125 14.3 26.0285 14.472 26.8205 14.816C27.6205 15.16 28.2125 15.656 28.5965 16.304C28.9805 16.944 29.1725 17.7 29.1725 18.572C29.1725 19.444 29.0005 20.188 28.6565 20.804C28.3125 21.412 27.8765 21.884 27.3485 22.22C26.8205 22.548 26.2845 22.732 25.7405 22.772C26.3085 22.788 26.8925 22.936 27.4925 23.216C28.0925 23.488 28.5965 23.932 29.0045 24.548C29.4125 25.156 29.6165 25.968 29.6165 26.984C29.6165 27.944 29.4205 28.804 29.0285 29.564C28.6445 30.316 28.0245 30.912 27.1685 31.352C26.3125 31.784 25.1685 32 23.7365 32H16.7765V14.3H23.7725ZM20.3405 22.496L19.1045 21.452H22.6325C23.5765 21.452 24.2845 21.252 24.7565 20.852C25.2285 20.444 25.4645 19.896 25.4645 19.208C25.4645 18.744 25.3645 18.364 25.1645 18.068C24.9645 17.764 24.6685 17.54 24.2765 17.396C23.8845 17.252 23.4005 17.18 22.8245 17.18H18.6605L20.3405 15.404V22.496ZM23.0165 29.108C23.9285 29.108 24.6205 28.9 25.0925 28.484C25.5725 28.06 25.8125 27.488 25.8125 26.768C25.8125 26.36 25.7405 26.004 25.5965 25.7C25.4605 25.396 25.2645 25.144 25.0085 24.944C24.7525 24.736 24.4405 24.58 24.0725 24.476C23.7125 24.364 23.3125 24.308 22.8725 24.308H19.1045L20.3405 23.276V30.884L18.6605 29.108H23.0165Z" fill="white"/>
</svg>
