<svg width="46" height="46" viewBox="0 0 46 46" fill="none" xmlns="http://www.w3.org/2000/svg">
<circle cx="23" cy="23" r="23" fill="#DDDDDD"/>
<path d="M30.4871 25.532C30.4871 26.3 30.3391 27.08 30.0431 27.872C29.7551 28.664 29.3151 29.392 28.7231 30.056C28.1391 30.72 27.3951 31.26 26.4911 31.676C25.5951 32.084 24.5311 32.288 23.2991 32.288C21.6591 32.288 20.2591 31.9 19.0991 31.124C17.9391 30.34 17.0511 29.26 16.4351 27.884C15.8271 26.508 15.5231 24.928 15.5231 23.144C15.5231 21.36 15.8271 19.784 16.4351 18.416C17.0511 17.048 17.9391 15.976 19.0991 15.2C20.2591 14.424 21.6591 14.036 23.2991 14.036C24.6671 14.036 25.8311 14.284 26.7911 14.78C27.7591 15.276 28.5311 15.92 29.1071 16.712C29.6911 17.504 30.0871 18.34 30.2951 19.22C30.4231 19.756 30.4871 20.272 30.4871 20.768H26.7551C26.7551 20.528 26.7351 20.296 26.6951 20.072C26.6151 19.488 26.4311 18.968 26.1431 18.512C25.8551 18.056 25.4711 17.696 24.9911 17.432C24.5191 17.16 23.9551 17.024 23.2991 17.024C22.5311 17.024 21.8471 17.244 21.2471 17.684C20.6471 18.124 20.1751 18.796 19.8311 19.7C19.4871 20.604 19.3151 21.752 19.3151 23.144C19.3151 24.544 19.4871 25.7 19.8311 26.612C20.1751 27.516 20.6471 28.192 21.2471 28.64C21.8471 29.08 22.5311 29.3 23.2991 29.3C23.8511 29.3 24.3391 29.2 24.7631 29C25.1951 28.8 25.5551 28.524 25.8431 28.172C26.1391 27.82 26.3631 27.416 26.5151 26.96C26.6751 26.504 26.7551 26.028 26.7551 25.532H30.4871Z" fill="white"/>
</svg>
